<svg xmlns="http://www.w3.org/2000/svg" xmlns:xlink="http://www.w3.org/1999/xlink" width="1580" height="1910.48"><rect width="1580" height="1910.48" rx="0" ry="0" class="a"/><svg height="1910.48" viewBox="0 0 158 191.048" width="1580" xmlns="http://www.w3.org/2000/svg" xmlns:xlink="http://www.w3.org/1999/xlink"><style>@keyframes p{0%{transform:translateX(0)}.1%{transform:translateX(-316px)}8.6%{transform:translateX(-474px)}9.3%{transform:translateX(-632px)}9.5%{transform:translateX(-790px)}9.9%{transform:translateX(-948px)}10.9%{transform:translateX(-1106px)}13.3%{transform:translateX(-1264px)}13.5%{transform:translateX(-1580px)}13.7%{transform:translateX(-1738px)}17.4%{transform:translateX(-1896px)}21.2%{transform:translateX(-2054px)}22.2%{transform:translateX(-2212px)}22.8%{transform:translateX(-2370px)}23.9%{transform:translateX(-2528px)}27.6%{transform:translateX(-2686px)}28.5%{transform:translateX(-2844px)}31.5%{transform:translateX(-3002px)}31.8%{transform:translateX(-3160px)}45.2%{transform:translateX(-5846px)}50%{transform:translateX(-6004px)}60.7%{transform:translateX(-6162px)}67.3%{transform:translateX(-6478px)}67.4%{transform:translateX(-6794px)}81.4%{transform:translateX(-6952px)}97.6%{transform:translateX(-7426px)}to{transform:translateX(-7584px)}}.a{fill:#282d35}.c,.d{fill:#b9c0cb;white-space:pre}.d{fill:#00af5f;font-weight:700}.e{fill:#b9c0cb}.f,.g,.h{fill:#282d35;white-space:pre}.g,.h{fill:#585858}.h{fill:#8a8a8a}.j{font-weight:700}.j,.k,.l{fill:#fff;white-space:pre}.l{fill:#00af5f}.m{fill:#3a3a3a}</style><g font-family="Monaco,Consolas,Menlo,'Bitstream Vera Sans Mono','Powerline Symbols',monospace" font-size="1.67"><defs><symbol id="1"><text y="1.67" class="c">$</text></symbol><symbol id="2"><text y="1.67" class="c">$</text><text x="2.004" y="1.67" class="c">clify</text></symbol><symbol id="3"><text y="1.67" class="d">clify</text><text x="6.012" y="1.67" class="d">-</text><text x="8.016" y="1.67" class="d">AI</text><text x="11.022" y="1.67" class="d">Command</text><text x="19.038" y="1.67" class="d">Helper</text></symbol><symbol id="4"><text y="1.67" class="c">&gt;</text><path class="e" d="M2.004 0h1v2.171h-1z"/><text x="2.004" y="1.67" class="f">E</text><text x="3.006" y="1.67" class="g">nter</text><text x="8.016" y="1.67" class="g">your</text><text x="13.026" y="1.67" class="g">query...</text></symbol><symbol id="5"><text y="1.67" class="g">Press</text><text x="6.012" y="1.67" class="g">Enter</text><text x="12.024" y="1.67" class="g">to</text><text x="15.03" y="1.67" class="g">search</text><text x="22.044" y="1.67" class="g">•</text><text x="24.048" y="1.67" class="g">Tab</text><text x="28.056" y="1.67" class="g">for</text><text x="32.064" y="1.67" class="g">autocomplete</text><text x="45.09" y="1.67" class="g">•</text><text x="47.094" y="1.67" class="g">Ctrl+C</text><text x="54.108" y="1.67" class="g">to</text><text x="57.114" y="1.67" class="g">quit</text></symbol><symbol id="6"><text y="1.67" class="c">&gt;</text><text x="2.004" y="1.67" class="c">how</text><text x="6.012" y="1.67" class="c">do</text><text x="9.018" y="1.67" class="c">i</text><text x="11.022" y="1.67" class="c">record</text><text x="18.036" y="1.67" class="c">using</text><text x="24.048" y="1.67" class="c">asciinema</text><text x="34.068" y="1.67" class="c">and</text><text x="38.076" y="1.67" class="c">svg-term-cli</text><path class="e" d="M50.1 0h1v2.171h-1z"/><text x="50.1" y="1.67" class="f"></text></symbol><symbol id="7"><text y="1.67" class="d">Command</text><text x="8.016" y="1.67" class="d">Results</text></symbol><symbol id="8"><text y="1.67" class="h">Record</text><text x="7.014" y="1.67" class="h">terminal</text><text x="16.032" y="1.67" class="h">sessions</text><text x="25.05" y="1.67" class="h">using</text><text x="31.062" y="1.67" class="h">asciinema</text><text x="41.082" y="1.67" class="h">and</text><text x="45.09" y="1.67" class="h">convert</text><text x="53.106" y="1.67" class="h">them</text><text x="58.116" y="1.67" class="h">to</text><text x="61.122" y="1.67" class="h">SVG</text><text x="65.13" y="1.67" class="h">animations</text><text x="76.152" y="1.67" class="h">using</text><text x="82.164" y="1.67" class="h">svg-term-cli</text></symbol><symbol id="9"><text y="1.67" class="c">🟡</text><path fill="#585858" d="M3.006 0h22v2.171h-22z"/><text x="3.006" y="1.67" class="j">brew install asciinema</text></symbol><symbol id="10"><text x="4.008" y="1.67" class="h">Install</text><text x="12.024" y="1.67" class="h">asciinema</text><text x="22.044" y="1.67" class="h">terminal</text><text x="31.062" y="1.67" class="h">recorder</text><text x="40.08" y="1.67" class="h">using</text><text x="46.092" y="1.67" class="h">Homebrew</text></symbol><symbol id="11"><text y="1.67" class="c">🟡</text><text x="3.006" y="1.67" class="k">npm</text><text x="7.014" y="1.67" class="k">install</text><text x="15.03" y="1.67" class="k">-g</text><text x="18.036" y="1.67" class="k">svg-term-cli</text></symbol><symbol id="12"><text x="4.008" y="1.67" class="h">Install</text><text x="12.024" y="1.67" class="h">svg-term-cli</text><text x="25.05" y="1.67" class="h">globally</text><text x="34.068" y="1.67" class="h">using</text><text x="40.08" y="1.67" class="h">npm</text><text x="44.088" y="1.67" class="h">to</text><text x="47.094" y="1.67" class="h">convert</text><text x="55.11" y="1.67" class="h">recordings</text><text x="66.132" y="1.67" class="h">to</text><text x="69.138" y="1.67" class="h">SVG</text></symbol><symbol id="13"><text y="1.67" class="c">🟡</text><text x="3.006" y="1.67" class="k">asciinema</text><text x="13.026" y="1.67" class="k">rec</text><text x="17.034" y="1.67" class="k">demo.cast</text></symbol><symbol id="14"><text x="4.008" y="1.67" class="h">Start</text><text x="10.02" y="1.67" class="h">recording</text><text x="20.04" y="1.67" class="h">terminal</text><text x="29.058" y="1.67" class="h">session</text><text x="37.074" y="1.67" class="h">and</text><text x="41.082" y="1.67" class="h">save</text><text x="46.092" y="1.67" class="h">to</text><text x="49.098" y="1.67" class="h">demo.cast</text><text x="59.118" y="1.67" class="h">file</text></symbol><symbol id="15"><text y="1.67" class="c">🟡</text><text x="3.006" y="1.67" class="k">svg-term</text><text x="12.024" y="1.67" class="k">--in</text><text x="17.034" y="1.67" class="k">demo.cast</text><text x="27.054" y="1.67" class="k">--out</text><text x="33.066" y="1.67" class="k">demo.svg</text></symbol><symbol id="16"><text x="4.008" y="1.67" class="h">Convert</text><text x="12.024" y="1.67" class="h">the</text><text x="16.032" y="1.67" class="h">recorded</text><text x="25.05" y="1.67" class="h">asciinema</text><text x="35.07" y="1.67" class="h">file</text><text x="40.08" y="1.67" class="h">to</text><text x="43.086" y="1.67" class="h">an</text><text x="46.092" y="1.67" class="h">SVG</text><text x="50.1" y="1.67" class="h">animation</text></symbol><symbol id="17"><text y="1.67" class="g">↑/↓</text><text x="4.008" y="1.67" class="g">Navigate</text><text x="13.026" y="1.67" class="g">•</text><text x="15.03" y="1.67" class="g">Enter</text><text x="21.042" y="1.67" class="g">to</text><text x="24.048" y="1.67" class="g">select</text><text x="31.062" y="1.67" class="g">•</text><text x="33.066" y="1.67" class="g">N</text><text x="35.07" y="1.67" class="g">for</text><text x="39.078" y="1.67" class="g">new</text><text x="43.086" y="1.67" class="g">query</text><text x="49.098" y="1.67" class="g">•</text><text x="51.102" y="1.67" class="g">Esc</text><text x="55.11" y="1.67" class="g">to</text><text x="58.116" y="1.67" class="g">go</text><text x="61.122" y="1.67" class="g">back</text></symbol><symbol id="18"><text x="53.106" y="1.67" class="l">╭──────────────────────────────────────────────────╮</text></symbol><symbol id="19"><text x="53.106" y="1.67" class="l">│</text><path class="m" d="M54.108 0h50v2.171h-50z"/><text x="54.108" y="1.67" class="c"></text><text x="104.208" y="1.67" class="l">│</text></symbol><symbol id="20"><text x="53.106" y="1.67" class="l">│</text><path class="m" d="M54.108 0h15v2.171h-15z"/><text x="54.108" y="1.67" class="c"></text><path class="m" d="M69.138 0h20v2.171h-20z"/><text x="69.138" y="1.67" class="j">Copied to clipboard!</text><path class="m" d="M89.178 0h15v2.171h-15z"/><text x="89.178" y="1.67" class="c"></text><text x="104.208" y="1.67" class="l">│</text></symbol><symbol id="21"><text x="53.106" y="1.67" class="l">│</text><path class="m" d="M54.108 0h6v2.171h-6z"/><text x="54.108" y="1.67" class="c"></text><path class="m" d="M60.12 0h38v2.171h-38z"/><text x="60.12" y="1.67" class="h">Press Enter to continue • Press Esc to</text><path class="m" d="M98.196 0h6v2.171h-6z"/><text x="98.196" y="1.67" class="c"></text><text x="104.208" y="1.67" class="l">│</text></symbol><symbol id="22"><text x="53.106" y="1.67" class="l">│</text><path class="m" d="M54.108 0h23v2.171h-23z"/><text x="54.108" y="1.67" class="c"></text><path class="m" d="M77.154 0h4v2.171h-4z"/><text x="77.154" y="1.67" class="h">exit</text><path class="m" d="M81.162 0h23v2.171h-23z"/><text x="81.162" y="1.67" class="c"></text><text x="104.208" y="1.67" class="l">│</text></symbol><symbol id="23"><text x="53.106" y="1.67" class="l">╰──────────────────────────────────────────────────╯</text></symbol><symbol id="24"><text y="1.67" class="c">$</text><path class="e" d="M2.004 0h22v2.171h-22z"/><text x="2.004" y="1.67" class="f">brew install asciinema</text></symbol><symbol id="a"><path fill="transparent" d="M0 0h158v88H0z"/></symbol><symbol id="b"><path fill="#6f7683" d="M0 0h1.102v2.171H0z"/></symbol></defs><path class="a" d="M0 0h158v191.048H0z"/><g style="animation-duration:13.853158s;animation-iteration-count:infinite;animation-name:p;animation-timing-function:steps(1,end)"><svg width="7742"><svg><use xlink:href="#a"/><use xlink:href="#b" x="-.004"/></svg><svg x="158"><use xlink:href="#a"/><use xlink:href="#b" x="-.004"/></svg><svg x="316"><use xlink:href="#a"/><use xlink:href="#b" x="1.996"/><use xlink:href="#1"/></svg><svg x="474"><use xlink:href="#a"/><use xlink:href="#b" x="2.996"/><text y="1.67" class="c">$</text><text x="2.004" y="1.67" class="c">c</text></svg><svg x="632"><use xlink:href="#a"/><use xlink:href="#b" x="3.996"/><text y="1.67" class="c">$</text><text x="2.004" y="1.67" class="c">cl</text></svg><svg x="790"><use xlink:href="#a"/><use xlink:href="#b" x="4.996"/><text y="1.67" class="c">$</text><text x="2.004" y="1.67" class="c">cli</text></svg><svg x="948"><use xlink:href="#a"/><use xlink:href="#b" x="5.996"/><text y="1.67" class="c">$</text><text x="2.004" y="1.67" class="c">clif</text></svg><svg x="1106"><use xlink:href="#a"/><use xlink:href="#b" x="6.996"/><use xlink:href="#2"/></svg><svg x="1264"><use xlink:href="#a"/><use xlink:href="#b" x="-.004" y="2.146"/><use xlink:href="#2"/></svg><svg x="1422"><use xlink:href="#a"/><use xlink:href="#b" x="-.004" y="2.146"/><use xlink:href="#2"/></svg><svg x="1580"><use xlink:href="#a"/></svg><svg x="1738"><use xlink:href="#a"/><use xlink:href="#3"/><use xlink:href="#4" y="4.342"/><use xlink:href="#5" y="8.684"/></svg><svg x="1896"><use xlink:href="#a"/><use xlink:href="#3"/><text y="6.012" class="c">&gt;</text><text x="2.004" y="6.012" class="g">Enter</text><text x="8.016" y="6.012" class="g">your</text><text x="13.026" y="6.012" class="g">query...</text><use xlink:href="#5" y="8.684"/></svg><svg x="2054"><use xlink:href="#a"/><use xlink:href="#3"/><use xlink:href="#4" y="4.342"/><use xlink:href="#5" y="8.684"/></svg><svg x="2212"><use xlink:href="#a"/><use xlink:href="#3"/><text y="6.012" class="c">&gt;</text><text x="2.004" y="6.012" class="c">h</text><path class="e" d="M3.006 4.342h1v2.171h-1z"/><text x="3.006" y="6.012" class="f">o</text><text x="4.008" y="6.012" class="g">w</text><text x="6.012" y="6.012" class="g">do</text><text x="9.018" y="6.012" class="g">i</text><text x="11.022" y="6.012" class="g">record</text><text x="18.036" y="6.012" class="g">using</text><text x="24.048" y="6.012" class="g">asciinema</text><text x="34.068" y="6.012" class="g">and</text><text x="38.076" y="6.012" class="g">svg-term-cli</text><use xlink:href="#5" y="8.684"/></svg><svg x="2370"><use xlink:href="#a"/><use xlink:href="#3"/><text y="6.012" class="c">&gt;</text><text x="2.004" y="6.012" class="c">ho</text><path class="e" d="M4.008 4.342h1v2.171h-1z"/><text x="4.008" y="6.012" class="f">w</text><text x="6.012" y="6.012" class="g">do</text><text x="9.018" y="6.012" class="g">i</text><text x="11.022" y="6.012" class="g">record</text><text x="18.036" y="6.012" class="g">using</text><text x="24.048" y="6.012" class="g">asciinema</text><text x="34.068" y="6.012" class="g">and</text><text x="38.076" y="6.012" class="g">svg-term-cli</text><use xlink:href="#5" y="8.684"/></svg><svg x="2528"><use xlink:href="#a"/><use xlink:href="#3"/><text y="6.012" class="c">&gt;</text><text x="2.004" y="6.012" class="c">how</text><path class="e" d="M5.01 4.342h1v2.171h-1z"/><text x="5.01" y="6.012" class="f"></text><text x="6.012" y="6.012" class="g">do</text><text x="9.018" y="6.012" class="g">i</text><text x="11.022" y="6.012" class="g">record</text><text x="18.036" y="6.012" class="g">using</text><text x="24.048" y="6.012" class="g">asciinema</text><text x="34.068" y="6.012" class="g">and</text><text x="38.076" y="6.012" class="g">svg-term-cli</text><use xlink:href="#5" y="8.684"/></svg><svg x="2686"><use xlink:href="#a"/><use xlink:href="#3"/><text y="6.012" class="c">&gt;</text><text x="2.004" y="6.012" class="c">how</text><text x="6.012" y="6.012" class="g">do</text><text x="9.018" y="6.012" class="g">i</text><text x="11.022" y="6.012" class="g">record</text><text x="18.036" y="6.012" class="g">using</text><text x="24.048" y="6.012" class="g">asciinema</text><text x="34.068" y="6.012" class="g">and</text><text x="38.076" y="6.012" class="g">svg-term-cli</text><use xlink:href="#5" y="8.684"/></svg><svg x="2844"><use xlink:href="#a"/><use xlink:href="#3"/><text y="6.012" class="c">&gt;</text><text x="2.004" y="6.012" class="c">how</text><text x="6.012" y="6.012" class="c">do</text><text x="9.018" y="6.012" class="c">i</text><text x="11.022" y="6.012" class="c">record</text><text x="18.036" y="6.012" class="c">using</text><text x="24.048" y="6.012" class="c">asciinema</text><text x="34.068" y="6.012" class="c">and</text><text x="38.076" y="6.012" class="c">svg-term-cli</text><use xlink:href="#5" y="8.684"/></svg><svg x="3002"><use xlink:href="#a"/><use xlink:href="#3"/><use xlink:href="#6" y="4.342"/><use xlink:href="#5" y="8.684"/></svg><svg x="3160"><use xlink:href="#a"/><use xlink:href="#7"/><use xlink:href="#8" y="4.342"/><use xlink:href="#9" y="8.684"/><use xlink:href="#10" y="10.855"/><use xlink:href="#11" y="15.197"/><use xlink:href="#12" y="17.368"/><use xlink:href="#13" y="21.71"/><use xlink:href="#14" y="23.881"/><use xlink:href="#15" y="28.223"/><use xlink:href="#16" y="30.394"/><use xlink:href="#17" y="36.907"/></svg><svg x="3318"><use xlink:href="#a"/><use xlink:href="#11" y="15.197"/><use xlink:href="#12" y="17.368"/><use xlink:href="#13" y="21.71"/><use xlink:href="#14" y="23.881"/><use xlink:href="#15" y="28.223"/><use xlink:href="#16" y="30.394"/><use xlink:href="#17" y="36.907"/></svg><svg x="3476"><use xlink:href="#a"/><use xlink:href="#15" y="28.223"/><use xlink:href="#16" y="30.394"/><use xlink:href="#17" y="36.907"/></svg><svg x="3634"><use xlink:href="#a"/></svg><svg x="3792"><use xlink:href="#a"/></svg><svg x="3950"><use xlink:href="#a"/></svg><svg x="4108"><use xlink:href="#a"/></svg><svg x="4266"><use xlink:href="#a"/><use xlink:href="#18" y="84.669"/></svg><svg x="4424"><use xlink:href="#a"/><use xlink:href="#18" y="84.669"/><use xlink:href="#19" y="86.84"/><use xlink:href="#19" y="89.011"/><use xlink:href="#20" y="91.182"/><use xlink:href="#19" y="93.353"/></svg><svg x="4582"><use xlink:href="#a"/><use xlink:href="#18" y="84.669"/><use xlink:href="#19" y="86.84"/><use xlink:href="#19" y="89.011"/><use xlink:href="#20" y="91.182"/><use xlink:href="#19" y="93.353"/><use xlink:href="#21" y="95.524"/><use xlink:href="#22" y="97.695"/><use xlink:href="#19" y="99.866"/><text x="53.106" y="103.707" class="l">│</text></svg><svg x="4740"><use xlink:href="#a"/><use xlink:href="#18" y="84.669"/><use xlink:href="#19" y="86.84"/><use xlink:href="#19" y="89.011"/><use xlink:href="#20" y="91.182"/><use xlink:href="#19" y="93.353"/><use xlink:href="#21" y="95.524"/><use xlink:href="#22" y="97.695"/><use xlink:href="#19" y="99.866"/><use xlink:href="#19" y="102.037"/><use xlink:href="#23" y="104.208"/></svg><svg x="4898"><use xlink:href="#a"/><use xlink:href="#18" y="84.669"/><use xlink:href="#19" y="86.84"/><use xlink:href="#19" y="89.011"/><use xlink:href="#20" y="91.182"/><use xlink:href="#19" y="93.353"/><use xlink:href="#21" y="95.524"/><use xlink:href="#22" y="97.695"/><use xlink:href="#19" y="99.866"/><use xlink:href="#19" y="102.037"/><use xlink:href="#23" y="104.208"/></svg><svg x="5056"><use xlink:href="#a"/><use xlink:href="#18" y="84.669"/><use xlink:href="#19" y="86.84"/><use xlink:href="#19" y="89.011"/><use xlink:href="#20" y="91.182"/><use xlink:href="#19" y="93.353"/><use xlink:href="#21" y="95.524"/><use xlink:href="#22" y="97.695"/><use xlink:href="#19" y="99.866"/><use xlink:href="#19" y="102.037"/><use xlink:href="#23" y="104.208"/></svg><svg x="5214"><use xlink:href="#a"/><use xlink:href="#18" y="84.669"/><use xlink:href="#19" y="86.84"/><use xlink:href="#19" y="89.011"/><use xlink:href="#20" y="91.182"/><use xlink:href="#19" y="93.353"/><use xlink:href="#21" y="95.524"/><use xlink:href="#22" y="97.695"/><use xlink:href="#19" y="99.866"/><use xlink:href="#19" y="102.037"/><use xlink:href="#23" y="104.208"/></svg><svg x="5372"><use xlink:href="#a"/><use xlink:href="#18" y="84.669"/><use xlink:href="#19" y="86.84"/><use xlink:href="#19" y="89.011"/><use xlink:href="#20" y="91.182"/><use xlink:href="#19" y="93.353"/><use xlink:href="#21" y="95.524"/><use xlink:href="#22" y="97.695"/><use xlink:href="#19" y="99.866"/><use xlink:href="#19" y="102.037"/><use xlink:href="#23" y="104.208"/></svg><svg x="5530"><use xlink:href="#a"/><use xlink:href="#18" y="84.669"/><use xlink:href="#19" y="86.84"/><use xlink:href="#19" y="89.011"/><use xlink:href="#20" y="91.182"/><use xlink:href="#19" y="93.353"/><use xlink:href="#21" y="95.524"/><use xlink:href="#22" y="97.695"/><use xlink:href="#19" y="99.866"/><use xlink:href="#19" y="102.037"/><use xlink:href="#23" y="104.208"/></svg><svg x="5688"><use xlink:href="#a"/><use xlink:href="#18" y="84.669"/><use xlink:href="#19" y="86.84"/><use xlink:href="#19" y="89.011"/><use xlink:href="#20" y="91.182"/><use xlink:href="#19" y="93.353"/><use xlink:href="#21" y="95.524"/><use xlink:href="#22" y="97.695"/><use xlink:href="#19" y="99.866"/><use xlink:href="#19" y="102.037"/><use xlink:href="#23" y="104.208"/></svg><svg x="5846"><use xlink:href="#a"/><use xlink:href="#18" y="84.669"/><use xlink:href="#19" y="86.84"/><use xlink:href="#19" y="89.011"/><use xlink:href="#20" y="91.182"/><use xlink:href="#19" y="93.353"/><use xlink:href="#21" y="95.524"/><use xlink:href="#22" y="97.695"/><use xlink:href="#19" y="99.866"/><use xlink:href="#19" y="102.037"/><use xlink:href="#23" y="104.208"/></svg><svg x="6004"><use xlink:href="#a"/><use xlink:href="#7"/><use xlink:href="#8" y="4.342"/><use xlink:href="#9" y="8.684"/><use xlink:href="#10" y="10.855"/><use xlink:href="#11" y="15.197"/><use xlink:href="#12" y="17.368"/><use xlink:href="#13" y="21.71"/><use xlink:href="#14" y="23.881"/><use xlink:href="#15" y="28.223"/><use xlink:href="#16" y="30.394"/><use xlink:href="#17" y="36.907"/></svg><svg x="6162"><use xlink:href="#a"/><use xlink:href="#3"/><use xlink:href="#6" y="4.342"/><use xlink:href="#5" y="8.684"/></svg><svg x="6320"><use xlink:href="#a"/><use xlink:href="#b" x="-.004" y="8.659"/><use xlink:href="#3"/><use xlink:href="#6" y="4.342"/></svg><svg x="6478"><use xlink:href="#a"/><use xlink:href="#b" x="-.004" y="2.146"/><use xlink:href="#2"/></svg><svg x="6636"><use xlink:href="#a"/><use xlink:href="#b" x="-.004" y="2.146"/><use xlink:href="#2"/></svg><svg x="6794"><use xlink:href="#a"/><use xlink:href="#b" x="1.996" y="2.146"/><use xlink:href="#2"/><use xlink:href="#1" y="2.171"/></svg><svg x="6952"><use xlink:href="#a"/><use xlink:href="#b" x="23.996" y="2.146"/><use xlink:href="#2"/><use xlink:href="#24" y="2.171"/></svg><svg x="7110"><use xlink:href="#a"/><use xlink:href="#b" x="-.004" y="4.317"/><use xlink:href="#2"/><use xlink:href="#24" y="2.171"/></svg><svg x="7268"><use xlink:href="#a"/><use xlink:href="#b" x="-.004" y="4.317"/><use xlink:href="#2"/><use xlink:href="#24" y="2.171"/></svg><svg x="7426"><use xlink:href="#a"/><use xlink:href="#b" x="1.996" y="4.317"/><use xlink:href="#2"/><use xlink:href="#24" y="2.171"/><use xlink:href="#1" y="4.342"/></svg><svg x="7584"><use xlink:href="#a"/><use xlink:href="#b" x="-.004" y="6.488"/><use xlink:href="#2"/><use xlink:href="#24" y="2.171"/><use xlink:href="#1" y="4.342"/></svg></svg></g></g></svg></svg>