<svg xmlns="http://www.w3.org/2000/svg" xmlns:xlink="http://www.w3.org/1999/xlink" width="1530" height="803.27"><rect width="1530" height="803.27" rx="0" ry="0" class="a"/><svg height="803.27" viewBox="0 0 153 80.327" width="1530" xmlns="http://www.w3.org/2000/svg" xmlns:xlink="http://www.w3.org/1999/xlink"><style>@keyframes r{0%{transform:translateX(0)}.1%{transform:translateX(-306px)}3.5%{transform:translateX(-459px)}5.5%{transform:translateX(-612px)}7.4%{transform:translateX(-765px)}8.3%{transform:translateX(-918px)}12.6%{transform:translateX(-1071px)}13.6%{transform:translateX(-1224px)}15.1%{transform:translateX(-1377px)}15.9%{transform:translateX(-1530px)}16.7%{transform:translateX(-1683px)}26.7%{transform:translateX(-1836px)}27%{transform:translateX(-2142px)}27.2%{transform:translateX(-2295px)}31.8%{transform:translateX(-2448px)}36.5%{transform:translateX(-2601px)}38.7%{transform:translateX(-2754px)}39.2%{transform:translateX(-2907px)}42.1%{transform:translateX(-3060px)}43.9%{transform:translateX(-3213px)}46.4%{transform:translateX(-3366px)}55.5%{transform:translateX(-4590px)}60.2%{transform:translateX(-4743px)}68.1%{transform:translateX(-4896px)}71.4%{transform:translateX(-5049px)}71.5%{transform:translateX(-5355px)}75.7%{transform:translateX(-5508px)}77.7%{transform:translateX(-5814px)}81.9%{transform:translateX(-5967px)}90.1%{transform:translateX(-6120px)}95.3%{transform:translateX(-6426px)}95.6%{transform:translateX(-6732px)}to{transform:translateX(-6885px)}}.a{fill:#282d35}.c,.d{fill:#b9c0cb;white-space:pre}.d{fill:#00af5f;font-weight:700}.e{fill:#b9c0cb}.f,.g,.h{fill:#282d35;white-space:pre}.g,.h{fill:#585858}.h{fill:#8a8a8a}.j{font-weight:700}.j,.k,.l{fill:#fff;white-space:pre}.l{fill:#00af5f}.m{fill:#3a3a3a}.n,.o{fill:#71bef2;white-space:pre}.o{fill:#b9c0cb;font-weight:700}</style><g font-family="Monaco,Consolas,Menlo,'Bitstream Vera Sans Mono','Powerline Symbols',monospace" font-size="1.67"><defs><symbol id="1"><text y="1.67" class="c">$</text></symbol><symbol id="2"><text y="1.67" class="c">$</text><text x="2.004" y="1.67" class="c">cl</text></symbol><symbol id="3"><text y="1.67" class="c">$</text><text x="2.004" y="1.67" class="c">clf</text></symbol><symbol id="4"><text y="1.67" class="c">$</text><text x="2.004" y="1.67" class="c">clify</text></symbol><symbol id="5"><text y="1.67" class="d">clify</text><text x="6.012" y="1.67" class="d">-</text><text x="8.016" y="1.67" class="d">AI</text><text x="11.022" y="1.67" class="d">Command</text><text x="19.038" y="1.67" class="d">Helper</text></symbol><symbol id="6"><text y="1.67" class="c">&gt;</text><path class="e" d="M2.004 0h1v2.171h-1z"/><text x="2.004" y="1.67" class="f">E</text><text x="3.006" y="1.67" class="g">nter</text><text x="8.016" y="1.67" class="g">your</text><text x="13.026" y="1.67" class="g">query...</text></symbol><symbol id="7"><text y="1.67" class="g">Press</text><text x="6.012" y="1.67" class="g">Enter</text><text x="12.024" y="1.67" class="g">to</text><text x="15.03" y="1.67" class="g">search</text><text x="22.044" y="1.67" class="g">•</text><text x="24.048" y="1.67" class="g">Tab</text><text x="28.056" y="1.67" class="g">for</text><text x="32.064" y="1.67" class="g">autocomplete</text><text x="45.09" y="1.67" class="g">•</text><text x="47.094" y="1.67" class="g">Ctrl+C</text><text x="54.108" y="1.67" class="g">to</text><text x="57.114" y="1.67" class="g">quit</text></symbol><symbol id="8"><text y="1.67" class="c">&gt;</text><text x="2.004" y="1.67" class="c">how</text><text x="6.012" y="1.67" class="c">do</text><text x="9.018" y="1.67" class="c">i</text><text x="11.022" y="1.67" class="c">record</text><text x="18.036" y="1.67" class="c">using</text><text x="24.048" y="1.67" class="c">asciinema</text><text x="34.068" y="1.67" class="c">and</text><text x="38.076" y="1.67" class="c">svg-term-cli</text><path class="e" d="M50.1 0h1v2.171h-1z"/><text x="50.1" y="1.67" class="f"></text></symbol><symbol id="9"><text y="1.67" class="d">Command</text><text x="8.016" y="1.67" class="d">Results</text></symbol><symbol id="10"><text y="1.67" class="h">Record</text><text x="7.014" y="1.67" class="h">terminal</text><text x="16.032" y="1.67" class="h">sessions</text><text x="25.05" y="1.67" class="h">using</text><text x="31.062" y="1.67" class="h">asciinema</text><text x="41.082" y="1.67" class="h">and</text><text x="45.09" y="1.67" class="h">convert</text><text x="53.106" y="1.67" class="h">them</text><text x="58.116" y="1.67" class="h">to</text><text x="61.122" y="1.67" class="h">SVG</text><text x="65.13" y="1.67" class="h">animations</text><text x="76.152" y="1.67" class="h">using</text><text x="82.164" y="1.67" class="h">svg-term-cli</text></symbol><symbol id="11"><text y="1.67" class="c">🟡</text><path fill="#585858" d="M3.006 0h22v2.171h-22z"/><text x="3.006" y="1.67" class="j">brew install asciinema</text></symbol><symbol id="12"><text x="4.008" y="1.67" class="h">Install</text><text x="12.024" y="1.67" class="h">asciinema</text><text x="22.044" y="1.67" class="h">terminal</text><text x="31.062" y="1.67" class="h">recorder</text><text x="40.08" y="1.67" class="h">using</text><text x="46.092" y="1.67" class="h">Homebrew</text></symbol><symbol id="13"><text y="1.67" class="c">🟡</text><text x="3.006" y="1.67" class="k">npm</text><text x="7.014" y="1.67" class="k">install</text><text x="15.03" y="1.67" class="k">-g</text><text x="18.036" y="1.67" class="k">svg-term-cli</text></symbol><symbol id="14"><text x="4.008" y="1.67" class="h">Install</text><text x="12.024" y="1.67" class="h">svg-term-cli</text><text x="25.05" y="1.67" class="h">globally</text><text x="34.068" y="1.67" class="h">using</text><text x="40.08" y="1.67" class="h">npm</text><text x="44.088" y="1.67" class="h">to</text><text x="47.094" y="1.67" class="h">convert</text><text x="55.11" y="1.67" class="h">recordings</text><text x="66.132" y="1.67" class="h">to</text><text x="69.138" y="1.67" class="h">SVG</text></symbol><symbol id="15"><text y="1.67" class="c">🟡</text><text x="3.006" y="1.67" class="k">asciinema</text><text x="13.026" y="1.67" class="k">rec</text><text x="17.034" y="1.67" class="k">demo.cast</text></symbol><symbol id="16"><text x="4.008" y="1.67" class="h">Start</text><text x="10.02" y="1.67" class="h">recording</text><text x="20.04" y="1.67" class="h">terminal</text><text x="29.058" y="1.67" class="h">session</text><text x="37.074" y="1.67" class="h">and</text><text x="41.082" y="1.67" class="h">save</text><text x="46.092" y="1.67" class="h">to</text><text x="49.098" y="1.67" class="h">demo.cast</text><text x="59.118" y="1.67" class="h">file</text></symbol><symbol id="17"><text y="1.67" class="c">🟡</text><text x="3.006" y="1.67" class="k">svg-term</text><text x="12.024" y="1.67" class="k">--in</text><text x="17.034" y="1.67" class="k">demo.cast</text><text x="27.054" y="1.67" class="k">--out</text><text x="33.066" y="1.67" class="k">demo.svg</text></symbol><symbol id="18"><text x="4.008" y="1.67" class="h">Convert</text><text x="12.024" y="1.67" class="h">the</text><text x="16.032" y="1.67" class="h">recorded</text><text x="25.05" y="1.67" class="h">asciinema</text><text x="35.07" y="1.67" class="h">file</text><text x="40.08" y="1.67" class="h">to</text><text x="43.086" y="1.67" class="h">an</text><text x="46.092" y="1.67" class="h">SVG</text><text x="50.1" y="1.67" class="h">animation</text></symbol><symbol id="19"><text y="1.67" class="g">↑/↓</text><text x="4.008" y="1.67" class="g">Navigate</text><text x="13.026" y="1.67" class="g">•</text><text x="15.03" y="1.67" class="g">Enter</text><text x="21.042" y="1.67" class="g">to</text><text x="24.048" y="1.67" class="g">select</text><text x="31.062" y="1.67" class="g">•</text><text x="33.066" y="1.67" class="g">N</text><text x="35.07" y="1.67" class="g">for</text><text x="39.078" y="1.67" class="g">new</text><text x="43.086" y="1.67" class="g">query</text><text x="49.098" y="1.67" class="g">•</text><text x="51.102" y="1.67" class="g">Esc</text><text x="55.11" y="1.67" class="g">to</text><text x="58.116" y="1.67" class="g">go</text><text x="61.122" y="1.67" class="g">back</text></symbol><symbol id="20"><text x="50.1" y="1.67" class="l">╭──────────────────────────────────────────────────╮</text></symbol><symbol id="21"><text x="50.1" y="1.67" class="l">│</text><path class="m" d="M51.102 0h50v2.171h-50z"/><text x="51.102" y="1.67" class="c"></text><text x="101.202" y="1.67" class="l">│</text></symbol><symbol id="22"><text x="50.1" y="1.67" class="l">│</text><path class="m" d="M51.102 0h15v2.171h-15z"/><text x="51.102" y="1.67" class="c"></text><path class="m" d="M66.132 0h20v2.171h-20z"/><text x="66.132" y="1.67" class="j">Copied to clipboard!</text><path class="m" d="M86.172 0h15v2.171h-15z"/><text x="86.172" y="1.67" class="c"></text><text x="101.202" y="1.67" class="l">│</text></symbol><symbol id="23"><text x="50.1" y="1.67" class="l">│</text><path class="m" d="M51.102 0h6v2.171h-6z"/><text x="51.102" y="1.67" class="c"></text><path class="m" d="M57.114 0h38v2.171h-38z"/><text x="57.114" y="1.67" class="h">Press Enter to continue • Press Esc to</text><path class="m" d="M95.19 0h6v2.171h-6z"/><text x="95.19" y="1.67" class="c"></text><text x="101.202" y="1.67" class="l">│</text></symbol><symbol id="24"><text x="50.1" y="1.67" class="l">│</text><path class="m" d="M51.102 0h23v2.171h-23z"/><text x="51.102" y="1.67" class="c"></text><path class="m" d="M74.148 0h4v2.171h-4z"/><text x="74.148" y="1.67" class="h">exit</text><path class="m" d="M78.156 0h23v2.171h-23z"/><text x="78.156" y="1.67" class="c"></text><text x="101.202" y="1.67" class="l">│</text></symbol><symbol id="25"><text x="50.1" y="1.67" class="l">╰──────────────────────────────────────────────────╯</text></symbol><symbol id="26"><text y="1.67" class="c">$</text><text x="2.004" y="1.67" class="c">brew</text><text x="7.014" y="1.67" class="c">install</text><text x="15.03" y="1.67" class="c">asciinema</text></symbol><symbol id="27"><text y="1.67" class="n">==&gt;</text><text x="4.008" y="1.67" class="o">Downloading</text><text x="16.032" y="1.67" class="o">https://formulae.brew.sh/api/formula.jws.json</text></symbol><symbol id="28"><text y="1.67" class="n">==&gt;</text><text x="4.008" y="1.67" class="o">Downloading</text><text x="16.032" y="1.67" class="o">https://formulae.brew.sh/api/cask.jws.json</text></symbol><symbol id="29"><text y="1.67" class="c">^C</text></symbol><symbol id="a"><path fill="transparent" d="M0 0h153v37H0z"/></symbol><symbol id="b"><path fill="#6f7683" d="M0 0h1.102v2.171H0z"/></symbol></defs><path class="a" d="M0 0h153v80.327H0z"/><g style="animation-duration:11.241752s;animation-iteration-count:infinite;animation-name:r;animation-timing-function:steps(1,end)"><svg width="7038"><svg><use xlink:href="#a"/><use xlink:href="#b" x="-.004"/></svg><svg x="153"><use xlink:href="#a"/><use xlink:href="#b" x="-.004"/></svg><svg x="306"><use xlink:href="#a"/><use xlink:href="#b" x="1.996"/><use xlink:href="#1"/></svg><svg x="459"><use xlink:href="#a"/><use xlink:href="#b" x="2.996"/><text y="1.67" class="c">$</text><text x="2.004" y="1.67" class="c">c</text></svg><svg x="612"><use xlink:href="#a"/><use xlink:href="#b" x="3.996"/><use xlink:href="#2"/></svg><svg x="765"><use xlink:href="#a"/><use xlink:href="#b" x="4.996"/><use xlink:href="#3"/></svg><svg x="918"><use xlink:href="#a"/><use xlink:href="#b" x="5.996"/><text y="1.67" class="c">$</text><text x="2.004" y="1.67" class="c">clfi</text></svg><svg x="1071"><use xlink:href="#a"/><use xlink:href="#b" x="4.996"/><use xlink:href="#3"/></svg><svg x="1224"><use xlink:href="#a"/><use xlink:href="#b" x="3.996"/><use xlink:href="#2"/></svg><svg x="1377"><use xlink:href="#a"/><use xlink:href="#b" x="4.996"/><text y="1.67" class="c">$</text><text x="2.004" y="1.67" class="c">cli</text></svg><svg x="1530"><use xlink:href="#a"/><use xlink:href="#b" x="5.996"/><text y="1.67" class="c">$</text><text x="2.004" y="1.67" class="c">clif</text></svg><svg x="1683"><use xlink:href="#a"/><use xlink:href="#b" x="6.996"/><use xlink:href="#4"/></svg><svg x="1836"><use xlink:href="#a"/><use xlink:href="#b" x="-.004" y="2.146"/><use xlink:href="#4"/></svg><svg x="1989"><use xlink:href="#a"/><use xlink:href="#b" x="-.004" y="2.146"/><use xlink:href="#4"/></svg><svg x="2142"><use xlink:href="#a"/></svg><svg x="2295"><use xlink:href="#a"/><use xlink:href="#5"/><use xlink:href="#6" y="4.342"/><use xlink:href="#7" y="8.684"/></svg><svg x="2448"><use xlink:href="#a"/><use xlink:href="#5"/><text y="6.012" class="c">&gt;</text><text x="2.004" y="6.012" class="g">Enter</text><text x="8.016" y="6.012" class="g">your</text><text x="13.026" y="6.012" class="g">query...</text><use xlink:href="#7" y="8.684"/></svg><svg x="2601"><use xlink:href="#a"/><use xlink:href="#5"/><use xlink:href="#6" y="4.342"/><use xlink:href="#7" y="8.684"/></svg><svg x="2754"><use xlink:href="#a"/><use xlink:href="#5"/><text y="6.012" class="c">&gt;</text><text x="2.004" y="6.012" class="c">h</text><path class="e" d="M3.006 4.342h1v2.171h-1z"/><text x="3.006" y="6.012" class="f">o</text><text x="4.008" y="6.012" class="g">w</text><text x="6.012" y="6.012" class="g">do</text><text x="9.018" y="6.012" class="g">i</text><text x="11.022" y="6.012" class="g">record</text><text x="18.036" y="6.012" class="g">using</text><text x="24.048" y="6.012" class="g">asciinema</text><text x="34.068" y="6.012" class="g">and</text><text x="38.076" y="6.012" class="g">svg-term-cli</text><use xlink:href="#7" y="8.684"/></svg><svg x="2907"><use xlink:href="#a"/><use xlink:href="#5"/><text y="6.012" class="c">&gt;</text><text x="2.004" y="6.012" class="c">ho</text><path class="e" d="M4.008 4.342h1v2.171h-1z"/><text x="4.008" y="6.012" class="f">w</text><text x="6.012" y="6.012" class="g">do</text><text x="9.018" y="6.012" class="g">i</text><text x="11.022" y="6.012" class="g">record</text><text x="18.036" y="6.012" class="g">using</text><text x="24.048" y="6.012" class="g">asciinema</text><text x="34.068" y="6.012" class="g">and</text><text x="38.076" y="6.012" class="g">svg-term-cli</text><use xlink:href="#7" y="8.684"/></svg><svg x="3060"><use xlink:href="#a"/><use xlink:href="#5"/><use xlink:href="#8" y="4.342"/><use xlink:href="#7" y="8.684"/></svg><svg x="3213"><use xlink:href="#a"/><use xlink:href="#5"/><text y="6.012" class="c">&gt;</text><text x="2.004" y="6.012" class="c">how</text><text x="6.012" y="6.012" class="c">do</text><text x="9.018" y="6.012" class="c">i</text><text x="11.022" y="6.012" class="c">record</text><text x="18.036" y="6.012" class="c">using</text><text x="24.048" y="6.012" class="c">asciinema</text><text x="34.068" y="6.012" class="c">and</text><text x="38.076" y="6.012" class="c">svg-term-cli</text><use xlink:href="#7" y="8.684"/></svg><svg x="3366"><use xlink:href="#a"/><use xlink:href="#9"/><use xlink:href="#10" y="4.342"/><use xlink:href="#11" y="8.684"/><use xlink:href="#12" y="10.855"/><use xlink:href="#13" y="15.197"/><use xlink:href="#14" y="17.368"/><use xlink:href="#15" y="21.71"/><use xlink:href="#16" y="23.881"/><use xlink:href="#17" y="28.223"/><use xlink:href="#18" y="30.394"/><use xlink:href="#19" y="36.907"/></svg><svg x="3519"><use xlink:href="#a"/><use xlink:href="#13" y="15.197"/><use xlink:href="#14" y="17.368"/><use xlink:href="#15" y="21.71"/><use xlink:href="#16" y="23.881"/><use xlink:href="#17" y="28.223"/><use xlink:href="#18" y="30.394"/><use xlink:href="#19" y="36.907"/></svg><svg x="3672"><use xlink:href="#a"/><use xlink:href="#17" y="28.223"/><use xlink:href="#18" y="30.394"/><use xlink:href="#19" y="36.907"/></svg><svg x="3825"><use xlink:href="#a"/><use xlink:href="#20" y="28.223"/><use xlink:href="#21" y="30.394"/><use xlink:href="#21" y="32.565"/><use xlink:href="#19" y="36.907"/></svg><svg x="3978"><use xlink:href="#a"/><use xlink:href="#20" y="28.223"/><use xlink:href="#21" y="30.394"/><use xlink:href="#21" y="32.565"/><use xlink:href="#22" y="34.736"/><use xlink:href="#21" y="36.907"/><use xlink:href="#23" y="39.078"/><text x="50.1" y="42.919" class="l">│</text><path class="m" d="M51.102 41.249h23v2.171h-23z"/><text x="51.102" y="42.919" class="c"></text><path class="m" d="M74.148 41.249h4v2.171h-4z"/><text x="74.148" y="42.919" class="h">exit</text><path class="m" d="M78.156 41.249h3v2.171h-3z"/><text x="78.156" y="42.919" class="c"></text></svg><svg x="4131"><use xlink:href="#a"/><use xlink:href="#20" y="28.223"/><use xlink:href="#21" y="30.394"/><use xlink:href="#21" y="32.565"/><use xlink:href="#22" y="34.736"/><use xlink:href="#21" y="36.907"/><use xlink:href="#23" y="39.078"/><use xlink:href="#24" y="41.249"/><use xlink:href="#21" y="43.42"/><use xlink:href="#21" y="45.591"/><use xlink:href="#25" y="47.762"/></svg><svg x="4284"><use xlink:href="#a"/><use xlink:href="#20" y="28.223"/><use xlink:href="#21" y="30.394"/><use xlink:href="#21" y="32.565"/><use xlink:href="#22" y="34.736"/><use xlink:href="#21" y="36.907"/><use xlink:href="#23" y="39.078"/><use xlink:href="#24" y="41.249"/><use xlink:href="#21" y="43.42"/><use xlink:href="#21" y="45.591"/><use xlink:href="#25" y="47.762"/></svg><svg x="4437"><use xlink:href="#a"/><use xlink:href="#20" y="28.223"/><use xlink:href="#21" y="30.394"/><use xlink:href="#21" y="32.565"/><use xlink:href="#22" y="34.736"/><use xlink:href="#21" y="36.907"/><use xlink:href="#23" y="39.078"/><use xlink:href="#24" y="41.249"/><use xlink:href="#21" y="43.42"/><use xlink:href="#21" y="45.591"/><use xlink:href="#25" y="47.762"/></svg><svg x="4590"><use xlink:href="#a"/><use xlink:href="#20" y="28.223"/><use xlink:href="#21" y="30.394"/><use xlink:href="#21" y="32.565"/><use xlink:href="#22" y="34.736"/><use xlink:href="#21" y="36.907"/><use xlink:href="#23" y="39.078"/><use xlink:href="#24" y="41.249"/><use xlink:href="#21" y="43.42"/><use xlink:href="#21" y="45.591"/><use xlink:href="#25" y="47.762"/></svg><svg x="4743"><use xlink:href="#a"/><use xlink:href="#9"/><use xlink:href="#10" y="4.342"/><use xlink:href="#11" y="8.684"/><use xlink:href="#12" y="10.855"/><use xlink:href="#13" y="15.197"/><use xlink:href="#14" y="17.368"/><use xlink:href="#15" y="21.71"/><use xlink:href="#16" y="23.881"/><use xlink:href="#17" y="28.223"/><use xlink:href="#18" y="30.394"/><use xlink:href="#19" y="36.907"/></svg><svg x="4896"><use xlink:href="#a"/><use xlink:href="#5"/><use xlink:href="#8" y="4.342"/><use xlink:href="#7" y="8.684"/></svg><svg x="5049"><use xlink:href="#a"/><use xlink:href="#b" x="-.004" y="2.146"/><use xlink:href="#4"/></svg><svg x="5202"><use xlink:href="#a"/><use xlink:href="#b" x="-.004" y="2.146"/><use xlink:href="#4"/></svg><svg x="5355"><use xlink:href="#a"/><use xlink:href="#b" x="1.996" y="2.146"/><use xlink:href="#4"/><use xlink:href="#1" y="2.171"/></svg><svg x="5508"><use xlink:href="#a"/><use xlink:href="#b" x="23.996" y="2.146"/><use xlink:href="#4"/><text y="3.841" class="c">$</text><path class="e" d="M2.004 2.171h22v2.171h-22z"/><text x="2.004" y="3.841" class="f">brew install asciinema</text></svg><svg x="5661"><use xlink:href="#a"/><use xlink:href="#b" x="23.996" y="2.146"/><use xlink:href="#4"/><use xlink:href="#26" y="2.171"/></svg><svg x="5814"><use xlink:href="#a"/><use xlink:href="#b" x="-.004" y="4.317"/><use xlink:href="#4"/><use xlink:href="#26" y="2.171"/></svg><svg x="5967"><use xlink:href="#a"/><use xlink:href="#b" x="-.004" y="6.488"/><use xlink:href="#4"/><use xlink:href="#26" y="2.171"/><use xlink:href="#27" y="4.342"/></svg><svg x="6120"><use xlink:href="#a"/><use xlink:href="#b" x="-.004" y="8.659"/><use xlink:href="#4"/><use xlink:href="#26" y="2.171"/><use xlink:href="#27" y="4.342"/><use xlink:href="#28" y="6.513"/></svg><svg x="6273"><use xlink:href="#a"/><use xlink:href="#b" x="1.996" y="8.659"/><use xlink:href="#4"/><use xlink:href="#26" y="2.171"/><use xlink:href="#27" y="4.342"/><use xlink:href="#28" y="6.513"/><use xlink:href="#29" y="8.684"/></svg><svg x="6426"><use xlink:href="#a"/><use xlink:href="#b" x="-.004" y="10.83"/><use xlink:href="#4"/><use xlink:href="#26" y="2.171"/><use xlink:href="#27" y="4.342"/><use xlink:href="#28" y="6.513"/><use xlink:href="#29" y="8.684"/></svg><svg x="6579"><use xlink:href="#a"/><use xlink:href="#b" x="-.004" y="10.83"/><use xlink:href="#4"/><use xlink:href="#26" y="2.171"/><use xlink:href="#27" y="4.342"/><use xlink:href="#28" y="6.513"/><use xlink:href="#29" y="8.684"/></svg><svg x="6732"><use xlink:href="#a"/><use xlink:href="#b" x="1.996" y="10.83"/><use xlink:href="#4"/><use xlink:href="#26" y="2.171"/><use xlink:href="#27" y="4.342"/><use xlink:href="#28" y="6.513"/><use xlink:href="#29" y="8.684"/><use xlink:href="#1" y="10.855"/></svg><svg x="6885"><use xlink:href="#a"/><use xlink:href="#b" x="-.004" y="13.001"/><use xlink:href="#4"/><use xlink:href="#26" y="2.171"/><use xlink:href="#27" y="4.342"/><use xlink:href="#28" y="6.513"/><use xlink:href="#29" y="8.684"/><use xlink:href="#1" y="10.855"/></svg></svg></g></g></svg></svg>